<svg xmlns="http://www.w3.org/2000/svg" xml:space="preserve" width="2000" height="1500" style="shape-rendering:geometricPrecision;text-rendering:geometricPrecision;image-rendering:optimizeQuality;fill-rule:evenodd;clip-rule:evenodd" xmlns:xlink="http://www.w3.org/1999/xlink"><defs><mask id="id0"><linearGradient id="id1" gradientUnits="userSpaceOnUse" x1="1266.52" y1="442.01" x2="1766.69" y2="307.99"><stop offset="0" style="stop-opacity:1;stop-color:white"/><stop offset="1" style="stop-opacity:0;stop-color:white"/></linearGradient><path style="fill:url(#id1)" d="M1264.88 303.52h503.14v149.59h-503.14z"/></mask><mask id="id2"><linearGradient id="id3" gradientUnits="userSpaceOnUse" x1="1405.07" y1="288.96" x2="1745.89" y2="197.63"><stop offset="0" style="stop-opacity:1;stop-color:white"/><stop offset="1" style="stop-opacity:0;stop-color:white"/></linearGradient><path style="fill:url(#id3)" d="M1403.57 194.21h343.61V296.9h-343.61z"/></mask><mask id="id4"><linearGradient id="id5" gradientUnits="userSpaceOnUse" x1="1766.36" y1="369.88" x2="2107.19" y2="278.55"><stop offset="0" style="stop-opacity:1;stop-color:white"/><stop offset="1" style="stop-opacity:0;stop-color:white"/></linearGradient><path style="fill:url(#id5)" d="M1764.87 300.99h236.31v76.82h-236.31z"/></mask><mask id="id6"><linearGradient id="id7" gradientUnits="userSpaceOnUse" x1="1684.47" y1="287.31" x2="2184.64" y2="153.29"><stop offset="0" style="stop-opacity:1;stop-color:white"/><stop offset="1" style="stop-opacity:0;stop-color:white"/></linearGradient><path style="fill:url(#id7)" d="M1682.83 193.57h318.35v104.84h-318.35z"/></mask><mask id="id8"><radialGradient id="id9" gradientUnits="userSpaceOnUse" cx="0" cy="0" r="0" fx="0" fy="0"><stop offset="0" style="stop-opacity:1;stop-color:white"/><stop offset=".839" style="stop-opacity:.501961;stop-color:white"/><stop offset="1" style="stop-opacity:0;stop-color:white"/></radialGradient><path style="fill:url(#id9)" d="M-1.18-1.18h425.4v504.01H-1.18z"/></mask><mask id="id10"><radialGradient id="id11" gradientUnits="userSpaceOnUse" cx="278.53" cy="1219.04" r="0" fx="278.53" fy="1219.04"><stop offset="0" style="stop-opacity:1;stop-color:white"/><stop offset=".839" style="stop-opacity:.501961;stop-color:white"/><stop offset="1" style="stop-opacity:0;stop-color:white"/></radialGradient><path style="fill:url(#id11)" d="M277.35 1217.86h1020.17v283.32H277.35z"/></mask><mask id="id12"><linearGradient id="id13" gradientUnits="userSpaceOnUse" x1="514.59" y1="644.2" x2="564.88" y2="824.58"><stop offset="0" style="stop-opacity:1;stop-color:white"/><stop offset="1" style="stop-opacity:0;stop-color:white"/></linearGradient><path style="fill:url(#id13)" d="M53.58 551.11h972.31v366.56H53.58z"/></mask><linearGradient id="id14" gradientUnits="userSpaceOnUse" x1="1095.25" y1="941.74" x2="1463.22" y2="941.74"><stop offset="0" style="stop-opacity:1;stop-color:#00e7fd"/><stop offset="1" style="stop-opacity:1;stop-color:#4781ff"/></linearGradient><linearGradient id="id15" gradientUnits="userSpaceOnUse" xlink:href="#id14" x1="805.67" y1="1006.85" x2="285.61" y2="486.78"/><linearGradient id="id16" gradientUnits="userSpaceOnUse" x1="1664.18" y1="1244.26" x2="1348.19" y2="928.27"><stop offset="0" style="stop-opacity:1;stop-color:#ff1274"/><stop offset="1" style="stop-opacity:1;stop-color:#fe64b3"/></linearGradient><linearGradient id="id17" gradientUnits="userSpaceOnUse" xlink:href="#id14" x1="226.5" y1="746.82" x2="864.78" y2="746.81"/><style>.fil3{fill:#00e7fd}.fil5{fill:#01f0fd}.fil1{fill:#381c9c}.fil8{fill:#3b2497}.fil15{fill:#d6005d}.fil7{fill:#fe64b3}.fil2{fill:#00e7fd;fill-opacity:.2}.fil12{fill:#fe64b3;fill-opacity:.6}</style></defs><g id="Camada_x0020_1"><g id="_2261878549376"><path style="fill:#4626a1" d="M0 0h2000v1500H0z"/><path class="fil1" d="M2000 554.92v17.49c-1.38-5.94-1.3-11.9 0-17.49zm0 138.72v239.82l-106.05 28.42c-20.44 5.87-41.95-6.93-47.4-27.27-5.49-20.46 6.54-41.49 26.89-47.18l79.87-21.4c49.07-13.14 29.21-87.77-20.11-74.55l-280.46 75.15c-49.09 13.15-69.18-61.41-19.87-74.62L2000 693.64zM454.82 0H848.5L525.7 86.49c-57.77 15.48-34.95 103.23 23.19 88.47l52.49-14.07c24.24-6.22 49.03 8.23 55.52 32.46 6.57 24.53-8.2 49.77-32.48 56.04L381.7 314.43c-24.39 6.54-49.47-7.94-56-32.33-6.56-24.47 7.36-48.95 33.09-56.21 24.11-6.73 38.35-31.64 31.86-55.87-6.49-24.23-31.28-38.68-55.52-32.46l-67.2 18.01c-24.25 6.22-49.03-8.23-55.53-32.46-6.49-24.24 7.75-49.14 31.86-55.88l185.65-49.74A45.531 45.531 0 0 0 454.82 0zM1185.95 921.95c5.48 20.46-6.55 41.49-26.9 47.17l-79.87 21.4c-49.07 13.15-29.2 87.77 20.11 74.56l280.47-75.15c49.08-13.15 69.17 61.4 19.86 74.61L921.4 1192.68c-48.78 13.07-29.51 87.16 19.59 74.7l44.31-11.88c20.47-5.25 41.4 6.95 46.88 27.41 5.55 20.71-6.92 42.02-27.42 47.32l-204.95 54.92c-20.6 5.52-41.77-6.71-47.29-27.3-5.53-20.67 6.22-41.33 27.95-47.46 20.36-5.69 32.38-26.72 26.9-47.18-5.48-20.46-26.41-32.66-46.88-27.41l-56.74 15.2c-20.47 5.26-41.4-6.94-46.89-27.4-5.48-20.47 6.55-41.5 26.9-47.18l156.76-42c20.35-5.69 32.38-26.72 26.9-47.18-5.49-20.46-26.42-32.66-46.89-27.41-29.46 7.51-181.22 48.56-210.61 56.43-49.11 13.16-69.09-61.43-19.99-74.58l548.61-147c20.45-5.87 41.96 6.92 47.41 27.27z"/><path class="fil2" d="M2000 587.16v42.59l-2.27.61c-10.85 3.03-17.25 14.24-14.33 25.14 2.16 8.08 8.85 13.74 16.6 14.99v44.45l-89.83 24.07c-10.86 3.01-22.3-3.5-25.25-14.53-2.93-10.9 3.48-22.11 14.33-25.14l23.61-6.32c25.97-7.33 15.12-46.65-10.87-39.69l-254.78 68.28c-26.28 7.03-36.87-32.72-10.72-39.73l149.43-40.04c26.28-7.04 15.57-46.76-10.58-39.75l-42.55 11.4c-10.91 2.8-22.06-3.7-24.98-14.6-2.9-10.84 3.61-22.47 14.61-25.21l227.16-60.87c26.16-7.01 36.81 32.73 10.65 39.74-15.66 4.19-31.49 8.23-47.08 12.61-10.85 3.03-17.26 14.24-14.33 25.14 2.92 10.9 14.07 17.4 24.97 14.6l66.21-17.74zM35.22 1110.64c10.98-2.94 17.49-14.22 14.55-25.2-2.94-10.97-14.22-17.48-25.2-14.54l-.06.02L0 1077.48v42.59l35.16-9.42.06-.01zm54.64 27.95L0 1162.67v42.59l100.51-26.93.06-.02c10.98-2.94 17.49-14.22 14.55-25.19-2.94-10.98-14.22-17.49-25.2-14.55l-.06.02z"/><g><circle class="fil3" cx="214.78" cy="1318.29" r="65.64"/><circle cx="1858.05" cy="1349.35" r="24.41" style="fill:#7f6ce2"/><path class="fil5" style="mask:url(#id0)" d="M1763.69 313.38a4.428 4.428 0 0 0 3-5.39 4.434 4.434 0 0 0-5.36-3.15l-485.35 120.79c-7.14 1.91-11.37 9.25-9.46 16.38 1.91 7.14 9.25 11.37 16.38 9.46 160.31-45.88 320.47-92.3 480.79-138.09z"/><path class="fil5" style="mask:url(#id2)" d="M1743.85 201.31a3.02 3.02 0 0 0 2.05-3.67 3.027 3.027 0 0 0-3.66-2.15l-330.73 82.31c-4.86 1.3-7.75 6.3-6.44 11.16 1.3 4.86 6.3 7.75 11.16 6.45 109.24-31.27 218.37-62.9 327.62-94.1z"/><path class="fil5" style="mask:url(#id4)" d="m2000 302.17-227.19 56.54c-4.87 1.3-7.75 6.3-6.45 11.17 1.3 4.86 6.3 7.74 11.17 6.44 74.18-21.23 148.31-42.63 222.47-63.95v-10.2z"/><path class="fil5" style="mask:url(#id6)" d="m2000 194.75-306.07 76.17c-7.14 1.92-11.37 9.25-9.46 16.39 1.91 7.14 9.25 11.37 16.38 9.46 99.75-28.55 199.44-57.31 299.15-85.99v-16.03z"/><circle cx="1003.44" cy="301.1" r="50.39" style="fill:#7f6ce2"/><circle class="fil7" cx="722.39" cy="204.41" r="30.27"/></g><g><path class="fil3" style="mask:url(#id8)" d="M423.04 0C393.7 238.65 224.53 434.01 0 501.65V0h423.04z"/><path class="fil3" style="mask:url(#id10)" d="M787.44 1219.04c214.32 0 402.42 112.15 508.9 280.96H278.53c106.48-168.81 294.58-280.96 508.91-280.96z"/><path class="fil8" d="M787.44 1316.4c156.64 0 296.59 71.48 389.01 183.6H398.42c92.42-112.12 232.37-183.6 389.02-183.6zM324.77 0C297.57 184.52 170.38 336.49 0 399.06V0h324.77z"/></g></g><g id="_2261878548368"><circle cx="545.64" cy="746.82" r="276.95" style="fill:#5420ec"/><path d="M545.64 427.68c-176.25 0-319.14 142.88-319.14 319.14 0 176.25 142.89 319.13 319.14 319.13s319.14-142.88 319.14-319.13c0-176.26-142.89-319.14-319.14-319.14zM268.69 746.82c0-152.96 123.99-276.96 276.95-276.96 152.96 0 276.95 124 276.95 276.96 0 152.95-123.99 276.95-276.95 276.95-152.96 0-276.95-124-276.95-276.95z" style="fill:url(#id17);fill-opacity:.8"/><path d="M226.5 746.82c0-176.26 142.89-319.14 319.14-319.14s319.14 142.88 319.14 319.14c0 176.25-142.89 319.13-319.14 319.13S226.5 923.07 226.5 746.82zm686.88 0c0-203.1-164.64-367.75-367.74-367.75-203.1 0-367.74 164.65-367.74 367.75 0 203.09 164.64 367.74 367.74 367.74 203.1 0 367.74-164.65 367.74-367.74z" style="fill:url(#id15);fill-opacity:.6"/><path class="fil3" style="mask:url(#id12)" d="M259.47 885.14c-112.51 3.14-124.83-35.35-28.46-93.98C371.02 705.98 675.54 616 837.78 614.79c102.32-.76 111.31 35.94 25.7 90.04l-40.12 22.96.45 28.91 42.22-20.45c16.8-8.56 32.52-17.11 47.04-25.59 76.96-44.95 120.08-87.82 111.82-118.65-13.08-48.82-142.66-44.06-221.33-35.3-188.71 21.02-455.61 99.58-624.22 194.01-85.03 47.61-133.47 93.53-124.76 126.05 12.96 48.36 140.47 44.18 219.63 35.48 14.96-1.64 30.48-3.65 46.49-6.02a279.834 279.834 0 0 1-15.27-24.19l-45.96 3.1z"/><path class="fil12" d="m579.53 900.04-213.85 57.3a277.526 277.526 0 0 0 63.07 40.63l165.17-44.26.08-.02c14.82-3.97 23.62-19.2 19.65-34.03-3.97-14.82-19.21-23.61-34.03-19.64l-.09.02zM399.49 631.9l333.25-89.29A277.729 277.729 0 0 0 673.35 501l-288.24 77.23-.09.02c-14.82 3.97-23.61 19.21-19.64 34.03 3.97 14.82 19.2 23.62 34.03 19.65l.08-.03z"/><path d="m283.23 835.63 319.21-85.54.09-.02c14.82-3.97 23.62-19.2 19.65-34.02-3.98-14.83-19.21-23.62-34.03-19.65l-.09.02-317.23 85.01a275.34 275.34 0 0 0 12.4 54.2z" style="fill:#fe64b3;fill-opacity:.8"/><path class="fil12" d="m743.96 740.94-207.17 55.51c-14.62 4.11-23.25 19.23-19.31 33.93 3.98 14.85 19.26 23.65 34.12 19.62l269.27-72.15c1.14-10.19 1.72-20.54 1.72-31.03 0-48.17-12.29-93.46-33.91-132.91l-228.34 61.18c-14.65 3.72-23.74 19.11-19.73 34.05 3.97 14.83 19.15 23.61 34.11 19.62l155.11-41.56c14.77-3.86 29.91 4.92 33.86 19.69 3.98 14.83-4.78 30.03-19.73 34.05z"/><circle cx="1506.19" cy="1086.27" r="174.58" style="fill:#ff1274"/><path class="fil15" d="M1462.36 1203.52c12.5-4.82 24.74-10.55 36.33-11.46 11.59-.91 22.53 3 31.64 11.72 9.12 8.72 16.41 22.27 16.02 33.99-.24 7.24-3.42 13.78-7.72 20.06 8.2-1.54 16.19-3.65 23.94-6.29-1.38-14.33-3.18-28.35-7.37-40.6-5.08-14.84-13.67-27.08-25.26-36.72-11.59-9.63-26.17-16.66-41.53-20.05-15.37-3.38-31.52-3.12-46.23.78-14.71 3.91-27.99 11.46-34.24 20.05-6.25 8.6-5.47 18.23-1.57 25.26 3.91 7.04 10.94 11.46 20.84 11.72 9.89.26 22.65-3.64 35.15-8.46z"/><path d="M1411.45 1142.45c25.65-1.3 50.91-6.77 69.79-8.07 18.88-1.3 31.38 1.56 45.32 6.51 13.93 4.95 29.29 11.98 40.88 23.57 11.59 11.59 19.4 27.73 23.57 45.31 2.05 8.66 3.22 17.67 3.94 26.86 4.12-2.44 8.13-5.04 12.02-7.8-.02-5.54-.28-10.91-.86-16.06-2.08-18.5-8.33-34.12-16.66-49.61-8.34-15.5-18.75-30.86-34.77-41.54-16.01-10.68-37.63-16.67-58.98-20.44-21.36-3.78-42.45-5.34-60.94-11.72-18.49-6.38-34.38-17.58-47.14-33.6-12.76-16.01-22.39-36.85-26.17-52.86-.98-4.15-1.56-7.98-1.86-11.57-17.7 27.3-27.98 59.87-27.98 94.84 0 16.88 2.4 33.2 6.87 48.64.87.26 1.75.52 2.66.77 18.62 5.21 44.66 8.07 70.31 6.77z" style="fill:#ff793b"/><path class="fil15" d="M1540.75 1089.2c19.01 5.86 38.02 17.58 53.38 30.34 15.37 12.76 27.09 26.56 34.12 41.14 6.05 12.56 8.63 25.7 10.73 38.92 19.4-22.71 33.08-50.46 38.8-81.02-11.08-11.72-22.49-23.18-37.29-31.99-16.41-9.76-36.98-16.27-57.42-19.53-20.45-3.25-40.76-3.25-57.3 0-16.53 3.26-29.29 9.77-42.05 16.28 19.01 0 38.02 0 57.03 5.86zM1534.56 964.26c13.61-.33 26.11-2.93 37.73-5.36 11.62-2.43 22.37-4.69 32.46-4.14 7.36.39 14.37 2.28 21.29 4.57-31.27-29.53-73.45-47.64-119.85-47.64h-.09c-1.77.49-3.49 1.06-5.13 1.72-9.31 3.78-16.21 10.68-17.38 19.08-1.17 8.4 3.38 18.29 13.02 24.22 9.63 5.92 24.35 7.87 37.95 7.55z"/><path class="fil7" d="M1543.81 994.92c-23.77 3.26-48.37 3.26-66.6-.39-18.23-3.64-30.08-10.93-34.38-21.74-4.3-10.81-1.04-25.13 6.06-36.13 5.57-8.64 13.51-15.24 21.96-21.39-26.87 5.52-51.49 17.22-72.31 33.55-1.96 6.07-3.37 12.09-3.89 18.04-1.3 15.17 3.26 29.89 11.53 40.82 8.27 10.94 20.24 18.1 35.41 22.92 15.17 4.82 33.53 7.29 53.2 6.51 19.66-.78 40.62-4.82 59.57-11.07 18.94-6.25 35.87-14.71 51.17-18.75 15.3-4.03 28.97-3.64 39.97-.65 8.84 2.41 15.96 6.5 21.05 10.51a174.159 174.159 0 0 0-20.22-35c-9.22-2.76-21.42-2.9-38-.05-17.84 3.06-40.76 9.57-64.52 12.82z"/><path d="M1506.19 911.69c96.41 0 174.57 78.16 174.57 174.58 0 96.41-78.16 174.57-174.57 174.57-96.42 0-174.58-78.16-174.58-174.57 0-96.42 78.16-174.58 174.58-174.58zm223.44 174.58c0-123.41-100.04-223.44-223.44-223.44-123.41 0-223.44 100.03-223.44 223.44 0 123.4 100.03 223.44 223.44 223.44 123.4 0 223.44-100.04 223.44-223.44z" style="fill:url(#id16);fill-opacity:.6"/><path d="M1279.24 797.99c79.39 0 143.75 64.36 143.75 143.75s-64.36 143.75-143.75 143.75-143.75-64.36-143.75-143.75 64.36-143.75 143.75-143.75zm0 327.74c101.61 0 183.98-82.38 183.98-183.99 0-101.61-82.37-183.98-183.98-183.98-101.62 0-183.99 82.37-183.99 183.98 0 101.61 82.37 183.99 183.99 183.99z" style="fill:url(#id14);fill-opacity:.6"/></g></g></svg>